<?xml version="1.0" encoding="utf-8"?>
<!-- Generator: Adobe Illustrator 19.2.1, SVG Export Plug-In . SVG Version: 6.00 Build 0)  -->
<svg version="1.1" id="layer" xmlns="http://www.w3.org/2000/svg" xmlns:xlink="http://www.w3.org/1999/xlink" x="0px" y="0px"
viewBox="0 0 652 652" style="enable-background:new 0 0 652 652;" xml:space="preserve">
<style type="text/css">
	.st0{fill:#231F20;}
</style>
<g id="Demandware-WF">
	<g id="Home---Small_Desktop" transform="translate(-444.000000, -80.000000)">
		<g id="Header">
			<g id="bouclair-logo-_x2F_-black" transform="translate(444.000000, 80.000000)">
				<g id="bouclair-blk">
					<path id="_Compound_Path_" class="st0" d="M598,338.5v41.7h-21.5V294H598v5.8c7.7-5.8,20.3-5.8,22.8-5.8v19.2
						C606.2,313.3,598,318.9,598,338.5z"/>
					<polygon id="_Compound_Path_2" class="st0" points="561.4,380.2 539.9,380.2 539.9,294 561.4,294 					"/>
					<path id="_Path_" class="st0" d="M538.4,273.8c0-3.3,1.3-6.5,3.6-8.8c2.3-2.3,5.5-3.6,8.7-3.6c3.2,0,6.3,1.3,8.6,3.6
						c2.3,2.3,3.5,5.5,3.5,8.7c-0.1,6.7-5.4,12.1-12.1,12.2C544.1,286,538.6,280.6,538.4,273.8z"/>
					<path id="_Compound_Path_3" class="st0" d="M76,380.2H20.8V264.1H73c22.7,0,34.1,12.1,34.1,31.4c0.2,9-3.9,17.5-11.1,22.7
						c9.6,5.2,15.5,14.5,15.5,27.8C111.5,366.8,97.8,380.2,76,380.2L76,380.2z M42.4,284.2v25.6H73c3.5,0.2,6.8-1.1,9.3-3.5
						s3.9-5.8,3.9-9.3c0-7.7-5.1-12.7-13.2-12.7L42.4,284.2z M72.5,330H42.4v30H73c8.3,0,16.5-3.3,16.5-14.7
						C89.5,335.6,83.5,330.1,72.5,330L72.5,330z"/>
					<path id="_Compound_Path_4" class="st0" d="M206.6,337.2c0,25.8-19.1,45-42.4,45S122,363,122,337.2s18.9-45.4,42.3-45.4
						S206.7,311.4,206.6,337.2 M184.9,337.5c0-14.9-9.3-25.3-20.7-25.3c-11.4,0-20.7,10.3-20.7,25.3c0,14.5,9.3,24.6,20.7,24.6
						C175.6,362.1,184.9,352,184.9,337.5"/>
					<path id="_Path_2" class="st0" d="M257.4,382.2c-23.5,0-37.4-15.9-37.4-38.5V294h21.5v50.4c0,4.8,1.6,16.4,15.8,16.4
						c4.4,0.2,8.6-1.5,11.7-4.6c3.1-3.1,4.8-7.4,4.6-11.8V294h21.5v49.7C295.2,365.7,280.3,382.2,257.4,382.2"/>
					<path id="_Path_3" class="st0" d="M352,382.2c-25.3,0-43.4-20.1-43.4-45s18.1-45.4,43.4-45.4c17.5,0,31.3,8.7,37.9,23.7
						l-20.5,7.4c-3.4-6.6-10.1-10.7-17.4-10.9c-11.9,0-21.5,11.4-21.5,25.3c0,13.5,9.6,24.8,21.5,24.8c7.5,0,14.3-4.3,17.7-11
						l20.5,7.5C383.6,373.6,369.7,382.2,352,382.2"/>
					<polygon id="_Compound_Path_5" class="st0" points="426.8,380 405.2,380 405.2,264.2 426.8,264.2 					"/>
					<path id="_Compound_Path_6" class="st0" d="M503.2,294v5.6c-5.7-6.2-13.8-9.6-22.2-9.3c-22.2,0-40.8,18.5-40.8,45.3
						c0,26.8,18.5,45.3,40.8,45.3c8.4,0.3,16.5-3.1,22.2-9.4v8.7h21.4V294H503.2z M484.3,359.2c-10.7,0-21.4-7.8-21.4-23.4
						c0-15.6,10.7-23.4,21.4-23.4c11.4,0,19.3,8.7,19.3,23.4s-7.9,23.3-19.3,23.3L484.3,359.2z"/>
				</g>
			</g>
		</g>
	</g>
</g>
</svg>
