<?xml version="1.0" encoding="UTF-8"?>
<svg width="393px" height="393px" viewBox="0 0 393 393" version="1.1" xmlns="http://www.w3.org/2000/svg" xmlns:xlink="http://www.w3.org/1999/xlink">
    <!-- Generator: Sketch 53.2 (72643) - https://sketchapp.com -->
    <title>Group Copy</title>
    <desc>Created with Sketch.</desc>
    <g id="Page-1" stroke="none" stroke-width="1" fill="none" fill-rule="evenodd">
        <g id="Group-Copy" fill="#8BD8ED">
            <rect id="Rectangle" x="0" y="0" width="393" height="393"></rect>
            <g id="hummingbird-1" transform="translate(28.000000, 14.000000)" fill-rule="nonzero">
                <path d="M336.979637,93.9453707 C336.856447,92.8458863 335.505174,92.8458863 334.698231,92.8458863 C328.244591,92.8458863 298.888076,97.5955822 274.707461,105.417876 C273.143231,105.924369 271.916104,106.170407 270.956366,106.170407 C269.083684,106.170407 268.356957,105.278518 266.893954,103.259273 C265.129183,100.824837 262.712171,97.4917847 256.223198,94.6921359 C253.545482,93.5369084 250.438988,92.9506449 246.991572,92.9506449 C233.411045,92.9506449 216.242721,101.900294 206.167863,114.231051 C206.104835,114.307938 206.069501,114.323315 206.065682,114.323315 C205.1938,114.323315 202.160838,110.897998 196.920002,97.9252353 C193.087736,88.4392987 189.150424,76.4276235 186.889071,67.3222778 C183.496088,53.663298 173.636096,34.4578807 167.11179,21.7503779 C164.328073,16.3279205 162.128793,12.0453133 161.57587,10.3749427 C161.149001,9.08804617 160.477662,8.43450647 159.579042,8.43450647 C159.002245,8.43450647 158.448366,8.72283281 157.885893,9.31582398 C151.52775,16.0271 138.52975,72.0296858 139.343378,89.2129744 C140.010897,103.323665 151.080827,112.865345 156.399971,117.450695 C157.029291,117.992748 157.701585,118.572284 158.224905,119.055711 C155.394395,118.036958 149.46694,113.157516 141.60282,106.683628 C130.256906,97.3437772 113.110547,83.2302029 89.8896689,67.8047438 C57.3598124,46.1956459 36.5215667,24.7768433 24.0717153,11.9809204 C15.7778624,3.45895497 12.3151669,0 9.88287636,0 C9.3051238,0 8.25275468,0.218166929 7.70747086,1.68190364 C4.91515931,9.17646625 8.42751289,86.6603252 43.1117658,128.547415 C62.4774586,151.935486 87.1699345,163.943317 103.50935,171.889591 C112.924329,176.468213 120.36158,180.084786 121.511356,183.478387 C121.772061,184.250141 121.705213,184.990178 121.298399,185.809025 C119.752314,188.921028 117.059319,192.72213 113.648191,197.536219 C104.261861,210.782892 90.0777966,230.80235 79.6944849,264.173241 C75.0285361,279.167171 26.2518956,331.692541 13.5661683,344.459632 C12.9473523,345.082417 -1.56712892,359.757266 0.139389802,363.901477 C0.274994535,364.232091 0.724782065,365 1.96145903,365 C4.99442123,365 12.9951005,359.76976 25.7419454,349.435183 C42.4251474,335.909795 53.8169,324.592986 62.1355819,316.323787 C70.2308024,308.275637 75.2987906,303.256837 78.7777205,302.713822 C78.4597178,304.428403 77.4550969,308.833068 74.4078102,319.942282 C74.3342781,320.210426 74.180529,320.843782 74.5290905,321.305105 L74.8681023,321.858691 L75.340809,321.858691 C75.3417639,321.858691 75.3427189,321.858691 75.3436739,321.858691 C76.0818602,321.858691 76.4628904,321.264739 79.6696558,317.258925 C89.4522959,305.039655 119.221355,267.704277 160.576023,259.529264 C184.809162,254.738242 214.900043,232.120002 225.521141,198.159965 C241.585527,146.800394 255.031405,114.491506 325.96032,98.1289859 C337.15917,95.5446208 337.088503,94.9083807 336.979637,93.9453707 Z" id="Path"></path>
            </g>
        </g>
    </g>
</svg>