<?xml version="1.0" encoding="UTF-8"?>
<svg width="192px" height="51px" viewBox="0 0 192 51" version="1.1" xmlns="http://www.w3.org/2000/svg" xmlns:xlink="http://www.w3.org/1999/xlink">
    <!-- Generator: Sketch 53.2 (72643) - https://sketchapp.com -->
    <title>homesense</title>
    <desc>Created with Sketch.</desc>
    <defs>
        <rect id="path-1" x="0.95" y="0.364" width="190.684" height="50.534"></rect>
        <rect id="path-3" x="0.95" y="0.364" width="190.684" height="50.534"></rect>
        <rect id="path-5" x="0.95" y="0.364" width="190.684" height="50.534"></rect>
        <rect id="path-7" x="0.95" y="0.364" width="190.684" height="50.534"></rect>
        <rect id="path-9" x="0.95" y="0.364" width="190.684" height="50.534"></rect>
        <rect id="path-11" x="0.95" y="0.364" width="190.684" height="50.534"></rect>
        <rect id="path-13" x="0.95" y="0.364" width="190.684" height="50.534"></rect>
        <rect id="path-15" x="0.95" y="0.364" width="190.684" height="50.534"></rect>
        <rect id="path-17" x="0.95" y="0.364" width="190.684" height="50.534"></rect>
        <rect id="path-19" x="0.95" y="0.364" width="190.684" height="50.534"></rect>
        <rect id="path-21" x="0.95" y="0.364" width="190.684" height="50.534"></rect>
        <rect id="path-23" x="0.95" y="0.364" width="190.684" height="50.534"></rect>
        <rect id="path-25" x="0.95" y="0.364" width="190.684" height="50.534"></rect>
        <rect id="path-27" x="0.95" y="0.364" width="190.684" height="50.534"></rect>
        <rect id="path-29" x="0.95" y="0.364" width="190.684" height="50.534"></rect>
        <rect id="path-31" x="0.95" y="0.364" width="190.684" height="50.534"></rect>
        <rect id="path-33" x="0.95" y="0.364" width="190.684" height="50.534"></rect>
        <rect id="path-35" x="0.95" y="0.364" width="190.684" height="50.534"></rect>
        <rect id="path-37" x="0.95" y="0.364" width="190.684" height="50.534"></rect>
        <rect id="path-39" x="0.95" y="0.364" width="190.684" height="50.534"></rect>
        <rect id="path-41" x="0.95" y="0.364" width="190.684" height="50.534"></rect>
        <rect id="path-43" x="0.95" y="0.364" width="190.684" height="50.534"></rect>
        <rect id="path-45" x="0.95" y="0.364" width="190.684" height="50.534"></rect>
        <rect id="path-47" x="0.95" y="0.364" width="190.684" height="50.534"></rect>
        <rect id="path-49" x="0.95" y="0.364" width="190.684" height="50.534"></rect>
        <rect id="path-51" x="0.95" y="0.364" width="190.684" height="50.534"></rect>
        <rect id="path-53" x="0.95" y="0.364" width="190.684" height="50.534"></rect>
        <rect id="path-55" x="0.95" y="0.364" width="190.684" height="50.534"></rect>
        <rect id="path-57" x="0.95" y="0.364" width="190.684" height="50.534"></rect>
        <rect id="path-59" x="0.95" y="0.364" width="190.684" height="50.534"></rect>
        <rect id="path-61" x="0.95" y="0.364" width="190.684" height="50.534"></rect>
        <rect id="path-63" x="0.95" y="0.364" width="190.684" height="50.534"></rect>
        <rect id="path-65" x="0.95" y="0.364" width="190.684" height="50.534"></rect>
        <rect id="path-67" x="0.95" y="0.364" width="190.684" height="50.534"></rect>
        <rect id="path-69" x="0.95" y="0.364" width="190.684" height="50.534"></rect>
        <rect id="path-71" x="0.95" y="0.364" width="190.684" height="50.534"></rect>
        <rect id="path-73" x="0.95" y="0.364" width="190.684" height="50.534"></rect>
        <rect id="path-75" x="0.95" y="0.364" width="190.684" height="50.534"></rect>
        <rect id="path-77" x="0.95" y="0.364" width="190.684" height="50.534"></rect>
        <rect id="path-79" x="0.95" y="0.364" width="190.684" height="50.534"></rect>
        <rect id="path-81" x="0.95" y="0.364" width="190.684" height="50.534"></rect>
        <rect id="path-83" x="0.95" y="0.364" width="190.684" height="50.534"></rect>
        <rect id="path-85" x="0.95" y="0.364" width="190.684" height="50.534"></rect>
        <rect id="path-87" x="0.95" y="0.364" width="190.684" height="50.534"></rect>
        <rect id="path-89" x="0.95" y="0.364" width="190.684" height="50.534"></rect>
    </defs>
    <g id="Page-1" stroke="none" stroke-width="1" fill="none" fill-rule="evenodd">
        <g id="homesense">
            <polygon id="Path" fill="#000000" fill-rule="nonzero" points="21.754 20.828 14.591 20.828 14.591 19.714 16.85 19.714 16.85 11.439 6.06 11.439 6.06 19.714 8.314 19.714 8.314 20.828 1.155 20.828 1.155 19.714 3.412 19.714 3.412 2.08 1.155 2.08 1.155 0.967 8.314 0.967 8.314 2.08 6.06 2.08 6.06 10.085 16.85 10.085 16.85 2.08 14.591 2.08 14.591 0.967 21.754 0.967 21.754 2.08 19.468 2.08 19.468 19.714 21.754 19.714"></polygon>
            <g id="Group">
                <g id="Clipped">
                    <mask id="mask-2" fill="white">
                        <use xlink:href="#path-1"></use>
                    </mask>
                    <g id="SVGID_1_"></g>
                    <path d="M26.341,12.68 C26.341,8.117 30.202,4.187 34.695,4.187 C39.118,4.187 42.98,8.154 42.98,12.68 C42.98,17.283 39.118,21.284 34.695,21.284 C30.202,21.284 26.341,17.317 26.341,12.68 M29.359,12.68 C29.359,16.65 31.71,19.809 34.659,19.809 C37.642,19.809 39.995,16.682 39.995,12.716 C39.995,8.785 37.608,5.66 34.659,5.66 C31.71,5.66 29.359,8.786 29.359,12.68 M26.341,12.682 C26.341,8.119 30.202,4.189 34.695,4.189 C39.118,4.189 42.98,8.154 42.98,12.682 C42.98,17.283 39.118,21.284 34.695,21.284 C30.202,21.284 26.341,17.317 26.341,12.682 M29.359,12.682 C29.359,16.65 31.71,19.809 34.659,19.809 C37.642,19.809 39.995,16.682 39.995,12.718 C39.995,8.785 37.608,5.662 34.659,5.662 C31.71,5.662 29.359,8.786 29.359,12.682" id="Shape" fill="#000000" fill-rule="nonzero" mask="url(#mask-2)"></path>
                </g>
                <g id="Clipped">
                    <mask id="mask-4" fill="white">
                        <use xlink:href="#path-3"></use>
                    </mask>
                    <g id="SVGID_1_"></g>
                    <polygon id="Path" fill="#000000" fill-rule="nonzero" mask="url(#mask-4)" points="70.005 20.828 62.07 20.828 62.07 19.527 64.702 19.527 64.702 7.802 58.352 21.071 52.487 8.506 52.487 19.527 55.119 19.527 55.119 20.828 48.064 20.828 48.064 19.527 50.698 19.527 50.698 6.013 48.064 6.013 48.064 4.608 53.33 4.608 58.879 16.474 64.528 4.608 70.005 4.608 70.005 6.013 67.371 6.013 67.371 19.527 70.005 19.527"></polygon>
                </g>
                <g id="Clipped">
                    <mask id="mask-6" fill="white">
                        <use xlink:href="#path-5"></use>
                    </mask>
                    <g id="SVGID_1_"></g>
                    <polygon id="Path" fill="#000000" fill-rule="nonzero" mask="url(#mask-6)" points="89.097 20.828 76.526 20.828 76.526 19.527 79.16 19.527 79.16 5.908 76.526 5.908 76.526 4.608 87.55 4.608 87.55 3.906 88.85 3.906 88.85 7.839 87.586 7.839 87.586 6.013 81.827 6.013 81.827 11.875 86.323 11.875 86.323 10.188 87.621 10.187 87.621 15.034 86.323 15.034 86.323 13.278 81.827 13.278 81.827 19.421 87.797 19.421 87.797 17.562 89.097 17.562"></polygon>
                </g>
                <g id="Clipped">
                    <mask id="mask-8" fill="white">
                        <use xlink:href="#path-7"></use>
                    </mask>
                    <g id="SVGID_1_"></g>
                    <path d="M99.41,21.099 L97.993,21.099 L97.993,15.681 L99.41,15.681 L99.41,18.057 C101.246,19.293 102.059,19.594 103.381,19.594 C105.79,19.594 107.413,18.329 107.413,16.433 C107.413,14.719 106.239,13.456 102.992,11.771 C99.201,9.785 97.904,8.279 97.904,5.812 C97.904,2.832 100.431,0.606 103.835,0.606 C105.338,0.606 106.45,0.877 107.413,1.448 L107.413,0.365 L108.8,0.365 L108.8,5.511 L107.413,5.511 L107.413,3.373 C105.878,2.351 105.127,2.049 103.924,2.049 C101.876,2.049 100.552,3.282 100.552,5.15 C100.552,6.684 101.426,7.556 105.188,9.722 C108.947,11.889 110.032,13.213 110.032,15.68 C110.032,18.81 107.445,21.216 104.043,21.216 C102.149,21.216 100.914,20.828 99.411,19.862 L99.411,21.099 L99.41,21.099 Z" id="Path" fill="#000000" fill-rule="nonzero" mask="url(#mask-8)"></path>
                </g>
                <g id="Clipped">
                    <mask id="mask-10" fill="white">
                        <use xlink:href="#path-9"></use>
                    </mask>
                    <g id="SVGID_1_"></g>
                    <polygon id="Path" fill="#000000" fill-rule="nonzero" mask="url(#mask-10)" points="129.614 20.828 117.048 20.828 117.048 19.527 119.682 19.527 119.682 5.908 117.048 5.908 117.048 4.608 128.071 4.608 128.071 3.906 129.369 3.906 129.369 7.839 128.104 7.839 128.104 6.013 122.347 6.013 122.347 11.875 126.84 11.875 126.84 10.188 128.141 10.187 128.141 15.034 126.84 15.034 126.84 13.278 122.347 13.278 122.347 19.421 128.315 19.421 128.315 17.562 129.614 17.562"></polygon>
                </g>
                <g id="Clipped">
                    <mask id="mask-12" fill="white">
                        <use xlink:href="#path-11"></use>
                    </mask>
                    <g id="SVGID_1_"></g>
                    <polygon id="Path" fill="#000000" fill-rule="nonzero" mask="url(#mask-12)" points="153.269 21.107 152.217 21.107 142.036 9.173 142.036 19.528 144.705 19.528 144.705 20.828 137.646 20.828 137.646 19.528 140.278 19.528 140.278 6.924 139.578 6.011 137.12 6.011 137.12 4.609 141.649 4.609 151.513 16.053 151.513 6.011 148.846 6.011 148.846 4.609 155.902 4.609 155.902 6.011 153.269 6.011"></polygon>
                </g>
                <g id="Clipped">
                    <mask id="mask-14" fill="white">
                        <use xlink:href="#path-13"></use>
                    </mask>
                    <g id="SVGID_1_"></g>
                    <path d="M163.726,21.036 L162.43,21.036 L162.43,16.65 L163.726,16.65 L163.726,18.473 C165.131,19.317 166.118,19.632 167.309,19.632 C169.065,19.632 170.329,18.649 170.329,17.28 C170.329,15.947 169.381,15.034 166.467,13.559 C163.38,12.016 162.324,10.786 162.324,8.715 C162.324,6.186 164.534,4.188 167.343,4.188 C168.503,4.188 169.519,4.433 170.537,4.995 L170.537,4.116 L171.839,4.116 L171.839,8.33 L170.537,8.33 L170.537,6.574 C169.17,5.837 168.536,5.661 167.59,5.661 C165.939,5.661 164.852,6.574 164.852,8.012 C164.852,8.928 165.237,9.416 166.43,10.119 C167.343,10.645 168.186,11.138 168.923,11.56 C171.944,13.245 172.783,14.365 172.783,16.649 C172.783,19.279 170.607,21.281 167.696,21.281 C166.36,21.281 165.095,20.897 163.726,20.124 L163.726,21.036 L163.726,21.036 Z" id="Path" fill="#000000" fill-rule="nonzero" mask="url(#mask-14)"></path>
                </g>
                <g id="Clipped">
                    <mask id="mask-16" fill="white">
                        <use xlink:href="#path-15"></use>
                    </mask>
                    <g id="SVGID_1_"></g>
                    <polygon id="Path" fill="#000000" fill-rule="nonzero" mask="url(#mask-16)" points="191.634 20.828 179.065 20.828 179.065 19.527 181.697 19.527 181.697 5.908 179.065 5.908 179.065 4.608 190.085 4.608 190.085 3.906 191.387 3.906 191.387 7.839 190.123 7.839 190.123 6.013 184.366 6.013 184.366 11.875 188.86 11.875 188.86 10.188 190.154 10.192 190.154 15.034 188.86 15.034 188.86 13.278 184.366 13.278 184.366 19.421 190.334 19.421 190.334 17.562 191.634 17.562"></polygon>
                </g>
                <g id="Clipped">
                    <mask id="mask-18" fill="white">
                        <use xlink:href="#path-17"></use>
                    </mask>
                    <g id="SVGID_1_"></g>
                    <rect id="Rectangle" fill="#000000" fill-rule="nonzero" mask="url(#mask-18)" x="1.153" y="29.645" width="190.48" height="1"></rect>
                </g>
                <g id="Clipped">
                    <mask id="mask-20" fill="white">
                        <use xlink:href="#path-19"></use>
                    </mask>
                    <g id="SVGID_1_"></g>
                    <rect id="Rectangle" fill="#000000" fill-rule="nonzero" mask="url(#mask-20)" x="0.95" y="38.016" width="1" height="9.634"></rect>
                </g>
                <g id="Clipped">
                    <mask id="mask-22" fill="white">
                        <use xlink:href="#path-21"></use>
                    </mask>
                    <g id="SVGID_1_"></g>
                    <path d="M7.659,42.564 C7.052,42.013 6.742,41.843 6.389,41.843 C5.765,41.843 5.045,42.494 4.355,43.666 L4.355,47.649 L3.676,47.649 L3.676,41.309 L4.355,41.309 L4.355,42.975 L4.383,42.975 C5.131,41.787 5.894,41.181 6.6,41.181 C7.038,41.181 7.433,41.379 8.056,41.929 L7.659,42.564 Z" id="Path" fill="#000000" fill-rule="nonzero" mask="url(#mask-22)"></path>
                </g>
                <g id="Clipped">
                    <mask id="mask-24" fill="white">
                        <use xlink:href="#path-23"></use>
                    </mask>
                    <g id="SVGID_1_"></g>
                    <path d="M12.715,42.564 C12.108,42.013 11.796,41.843 11.443,41.843 C10.822,41.843 10.102,42.494 9.409,43.666 L9.409,47.649 L8.73,47.649 L8.73,41.309 L9.409,41.309 L9.409,42.975 L9.439,42.975 C10.187,41.787 10.95,41.181 11.654,41.181 C12.092,41.181 12.488,41.379 13.11,41.929 L12.715,42.564 Z" id="Path" fill="#000000" fill-rule="nonzero" mask="url(#mask-24)"></path>
                </g>
                <g id="Clipped">
                    <mask id="mask-26" fill="white">
                        <use xlink:href="#path-25"></use>
                    </mask>
                    <g id="SVGID_1_"></g>
                    <path d="M13.83,44.245 C13.635,45.871 14.919,47.113 16.359,47.113 C17.205,47.113 17.898,46.828 18.718,46.166 L18.718,46.928 C17.968,47.508 17.191,47.778 16.274,47.778 C14.437,47.778 13.109,46.363 13.109,44.4 C13.109,42.536 14.338,41.181 16.019,41.181 C17.374,41.181 18.831,42.127 18.831,44.245 L13.83,44.245 Z M18.026,43.696 C17.785,42.451 17.109,41.845 16.02,41.845 C14.977,41.845 14.156,42.535 13.916,43.696 L18.026,43.696 Z" id="Shape" fill="#000000" fill-rule="nonzero" mask="url(#mask-26)"></path>
                </g>
                <g id="Clipped">
                    <mask id="mask-28" fill="white">
                        <use xlink:href="#path-27"></use>
                    </mask>
                    <g id="SVGID_1_"></g>
                    <path d="M23.676,42.452 C22.97,41.985 22.502,41.802 21.938,41.802 C21.174,41.802 20.583,42.269 20.583,42.876 C20.583,44.402 23.874,43.822 23.874,46.025 C23.874,47.012 22.971,47.777 21.799,47.777 C21.148,47.777 20.542,47.592 19.891,47.197 L19.891,46.532 C20.724,46.956 21.274,47.112 21.884,47.112 C22.661,47.112 23.225,46.661 23.225,46.011 C23.225,44.5 19.933,44.949 19.933,42.916 C19.933,41.942 20.838,41.179 21.983,41.179 C22.533,41.179 23.04,41.348 23.677,41.717 L23.677,42.452 L23.676,42.452 Z" id="Path" fill="#000000" fill-rule="nonzero" mask="url(#mask-28)"></path>
                </g>
                <g id="Clipped">
                    <mask id="mask-30" fill="white">
                        <use xlink:href="#path-29"></use>
                    </mask>
                    <g id="SVGID_1_"></g>
                    <path d="M25.978,39.173 L25.299,39.173 L25.299,38.016 L25.978,38.016 L25.978,39.173 Z M25.978,47.65 L25.299,47.65 L25.299,41.309 L25.978,41.309 L25.978,47.65 Z" id="Shape" fill="#000000" fill-rule="nonzero" mask="url(#mask-30)"></path>
                </g>
                <g id="Clipped">
                    <mask id="mask-32" fill="white">
                        <use xlink:href="#path-31"></use>
                    </mask>
                    <g id="SVGID_1_"></g>
                    <path d="M31.33,42.452 C30.623,41.985 30.16,41.802 29.594,41.802 C28.831,41.802 28.239,42.269 28.239,42.876 C28.239,44.402 31.53,43.822 31.53,46.025 C31.53,47.012 30.624,47.777 29.452,47.777 C28.801,47.777 28.196,47.592 27.545,47.197 L27.545,46.532 C28.379,46.956 28.93,47.112 29.537,47.112 C30.314,47.112 30.878,46.661 30.878,46.011 C30.878,44.5 27.588,44.949 27.588,42.916 C27.588,41.942 28.493,41.179 29.635,41.179 C30.187,41.179 30.695,41.348 31.33,41.717 L31.33,42.452 Z" id="Path" fill="#000000" fill-rule="nonzero" mask="url(#mask-32)"></path>
                </g>
                <g id="Clipped">
                    <mask id="mask-34" fill="white">
                        <use xlink:href="#path-33"></use>
                    </mask>
                    <g id="SVGID_1_"></g>
                    <path d="M34.086,41.308 L35.865,41.308 L35.865,41.859 L34.086,41.859 L34.086,45.629 C34.086,46.718 34.1,47.111 35.031,47.111 C35.411,47.111 35.625,47.055 36.191,46.802 L36.191,47.45 C36.063,47.521 35.852,47.592 35.611,47.662 C35.37,47.72 35.104,47.778 34.877,47.778 C34.17,47.778 33.409,47.381 33.409,46.421 L33.409,41.859 L31.697,41.859 L31.697,41.308 L33.409,41.308 L33.409,39.795 L33.872,39.203 L34.085,39.203 L34.085,41.308 L34.086,41.308 Z" id="Path" fill="#000000" fill-rule="nonzero" mask="url(#mask-34)"></path>
                </g>
                <g id="Clipped">
                    <mask id="mask-36" fill="white">
                        <use xlink:href="#path-35"></use>
                    </mask>
                    <g id="SVGID_1_"></g>
                    <path d="M37.899,39.173 L37.22,39.173 L37.22,38.016 L37.899,38.016 L37.899,39.173 Z M37.899,47.65 L37.22,47.65 L37.22,41.309 L37.899,41.309 L37.899,47.65 Z" id="Shape" fill="#000000" fill-rule="nonzero" mask="url(#mask-36)"></path>
                </g>
                <g id="Clipped">
                    <mask id="mask-38" fill="white">
                        <use xlink:href="#path-37"></use>
                    </mask>
                    <g id="SVGID_1_"></g>
                    <path d="M39.763,38.016 L40.442,38.016 L40.442,42.21 C41.107,41.562 41.713,41.18 42.728,41.18 C44.397,41.18 45.553,42.452 45.553,44.272 C45.553,46.406 44.156,47.777 42.008,47.777 C41.246,47.777 40.625,47.636 39.763,47.297 L39.763,38.016 L39.763,38.016 Z M40.442,46.816 C41.004,47.028 41.499,47.113 41.994,47.113 C43.647,47.113 44.833,45.941 44.833,44.315 C44.833,42.819 43.916,41.746 42.645,41.746 C41.852,41.746 41.205,42.112 40.441,42.974 L40.441,46.816 L40.442,46.816 Z" id="Shape" fill="#000000" fill-rule="nonzero" mask="url(#mask-38)"></path>
                </g>
                <g id="Clipped">
                    <mask id="mask-40" fill="white">
                        <use xlink:href="#path-39"></use>
                    </mask>
                    <g id="SVGID_1_"></g>
                    <rect id="Rectangle" fill="#000000" fill-rule="nonzero" mask="url(#mask-40)" x="46.869" y="38.016" width="1" height="9.634"></rect>
                </g>
                <g id="Clipped">
                    <mask id="mask-42" fill="white">
                        <use xlink:href="#path-41"></use>
                    </mask>
                    <g id="SVGID_1_"></g>
                    <path d="M49.822,44.245 C49.623,45.871 50.911,47.113 52.351,47.113 C53.197,47.113 53.89,46.828 54.71,46.166 L54.71,46.928 C53.96,47.508 53.183,47.778 52.266,47.778 C50.43,47.778 49.102,46.363 49.102,44.4 C49.102,42.536 50.331,41.181 52.012,41.181 C53.367,41.181 54.823,42.127 54.823,44.245 L49.822,44.245 Z M54.016,43.696 C53.777,42.451 53.1,41.845 52.012,41.845 C50.967,41.845 50.146,42.535 49.907,43.696 L54.016,43.696 Z" id="Shape" fill="#000000" fill-rule="nonzero" mask="url(#mask-42)"></path>
                </g>
                <g id="Clipped">
                    <mask id="mask-44" fill="white">
                        <use xlink:href="#path-43"></use>
                    </mask>
                    <g id="SVGID_1_"></g>
                    <path d="M63.919,38.793 C63.38,38.608 63.126,38.552 62.773,38.552 C61.713,38.552 61.234,39.175 61.234,40.515 L61.234,41.307 L62.463,41.307 L62.463,41.858 L61.234,41.858 L61.234,47.648 L60.558,47.648 L60.558,41.858 L59.384,41.858 L59.384,41.307 L60.558,41.307 L60.558,40.261 C60.558,38.624 61.7,37.89 62.759,37.89 C63.14,37.89 63.424,37.959 63.919,38.156 L63.919,38.793 L63.919,38.793 Z" id="Path" fill="#000000" fill-rule="nonzero" mask="url(#mask-44)"></path>
                </g>
                <g id="Clipped">
                    <mask id="mask-46" fill="white">
                        <use xlink:href="#path-45"></use>
                    </mask>
                    <g id="SVGID_1_"></g>
                    <path d="M64.006,39.173 L63.327,39.173 L63.327,38.016 L64.006,38.016 L64.006,39.173 Z M64.006,47.65 L63.327,47.65 L63.327,41.309 L64.006,41.309 L64.006,47.65 Z" id="Shape" fill="#000000" fill-rule="nonzero" mask="url(#mask-46)"></path>
                </g>
                <g id="Clipped">
                    <mask id="mask-48" fill="white">
                        <use xlink:href="#path-47"></use>
                    </mask>
                    <g id="SVGID_1_"></g>
                    <path d="M66.549,42.41 L66.576,42.41 C67.168,41.521 67.748,41.18 68.667,41.18 C70.022,41.18 71.024,42.071 71.024,43.779 L71.024,47.65 L70.347,47.65 L70.347,44.035 C70.347,42.607 69.74,41.844 68.625,41.844 C67.705,41.844 67.111,42.283 66.548,43.2 L66.548,47.649 L65.87,47.649 L65.87,41.309 L66.549,41.309 L66.549,42.41 Z" id="Path" fill="#000000" fill-rule="nonzero" mask="url(#mask-48)"></path>
                </g>
                <g id="Clipped">
                    <mask id="mask-50" fill="white">
                        <use xlink:href="#path-49"></use>
                    </mask>
                    <g id="SVGID_1_"></g>
                    <path d="M78.257,47.649 L77.58,47.649 L77.58,47.157 C76.901,47.622 76.422,47.778 75.702,47.778 C73.892,47.778 72.494,46.337 72.494,44.473 C72.494,42.58 73.851,41.182 75.702,41.182 C76.35,41.182 76.803,41.309 77.58,41.689 L77.58,38.017 L78.257,38.017 L78.257,47.649 Z M77.58,42.438 C76.888,42.001 76.392,41.843 75.727,41.843 C74.259,41.843 73.213,42.916 73.213,44.429 C73.213,45.968 74.346,47.112 75.868,47.112 C76.506,47.112 76.93,46.97 77.579,46.532 L77.579,42.438 L77.58,42.438 Z" id="Shape" fill="#000000" fill-rule="nonzero" mask="url(#mask-50)"></path>
                </g>
                <g id="Clipped">
                    <mask id="mask-52" fill="white">
                        <use xlink:href="#path-51"></use>
                    </mask>
                    <g id="SVGID_1_"></g>
                    <path d="M83.484,42.452 C82.778,41.985 82.31,41.802 81.748,41.802 C80.982,41.802 80.391,42.269 80.391,42.876 C80.391,44.402 83.682,43.822 83.682,46.025 C83.682,47.012 82.779,47.777 81.607,47.777 C80.956,47.777 80.348,47.592 79.699,47.197 L79.699,46.532 C80.532,46.956 81.084,47.112 81.692,47.112 C82.467,47.112 83.033,46.661 83.033,46.011 C83.033,44.5 79.743,44.949 79.743,42.916 C79.743,41.942 80.644,41.179 81.791,41.179 C82.341,41.179 82.85,41.348 83.485,41.717 L83.485,42.452 L83.484,42.452 Z" id="Path" fill="#000000" fill-rule="nonzero" mask="url(#mask-52)"></path>
                </g>
                <g id="Clipped">
                    <mask id="mask-54" fill="white">
                        <use xlink:href="#path-53"></use>
                    </mask>
                    <g id="SVGID_1_"></g>
                    <rect id="Rectangle" fill="#000000" fill-rule="nonzero" mask="url(#mask-54)" x="84.91" y="46.28" width="1" height="1.37"></rect>
                </g>
                <g id="Clipped">
                    <mask id="mask-56" fill="white">
                        <use xlink:href="#path-55"></use>
                    </mask>
                    <g id="SVGID_1_"></g>
                    <polygon id="Path" fill="#000000" fill-rule="nonzero" mask="url(#mask-56)" points="95.804 38.637 91.296 38.637 91.296 42.493 95.691 42.493 95.691 43.116 91.296 43.116 91.296 47.028 95.916 47.028 95.916 47.651 90.549 47.651 90.549 38.016 95.804 38.016"></polygon>
                </g>
                <g id="Clipped">
                    <mask id="mask-58" fill="white">
                        <use xlink:href="#path-57"></use>
                    </mask>
                    <g id="SVGID_1_"></g>
                    <polygon id="Path" fill="#000000" fill-rule="nonzero" mask="url(#mask-58)" points="97.299 47.649 96.425 47.649 99.319 44.401 96.425 41.309 97.299 41.309 99.789 43.935 102.272 41.309 103.148 41.309 100.238 44.401 103.148 47.649 102.272 47.649 99.789 44.868"></polygon>
                </g>
                <g id="Clipped">
                    <mask id="mask-60" fill="white">
                        <use xlink:href="#path-59"></use>
                    </mask>
                    <g id="SVGID_1_"></g>
                    <path d="M108.459,42.24 C107.723,41.928 107.342,41.844 106.804,41.844 C105.393,41.844 104.419,42.919 104.419,44.5 C104.419,46.096 105.365,47.112 106.86,47.112 C107.44,47.112 107.865,47.027 108.569,46.747 L108.569,47.451 C107.85,47.692 107.397,47.779 106.803,47.779 C104.941,47.779 103.698,46.492 103.698,44.571 C103.698,42.579 104.97,41.181 106.776,41.181 C107.328,41.181 107.752,41.265 108.459,41.491 L108.459,42.24 Z" id="Path" fill="#000000" fill-rule="nonzero" mask="url(#mask-60)"></path>
                </g>
                <g id="Clipped">
                    <mask id="mask-62" fill="white">
                        <use xlink:href="#path-61"></use>
                    </mask>
                    <g id="SVGID_1_"></g>
                    <path d="M110.281,44.245 C110.082,45.871 111.368,47.113 112.808,47.113 C113.656,47.113 114.349,46.828 115.167,46.166 L115.167,46.928 C114.419,47.508 113.642,47.778 112.725,47.778 C110.886,47.778 109.561,46.363 109.561,44.4 C109.561,42.536 110.788,41.181 112.468,41.181 C113.825,41.181 115.28,42.127 115.28,44.245 L110.281,44.245 Z M114.478,43.696 C114.235,42.451 113.559,41.845 112.469,41.845 C111.424,41.845 110.605,42.535 110.366,43.696 L114.478,43.696 Z" id="Shape" fill="#000000" fill-rule="nonzero" mask="url(#mask-62)"></path>
                </g>
                <g id="Clipped">
                    <mask id="mask-64" fill="white">
                        <use xlink:href="#path-63"></use>
                    </mask>
                    <g id="SVGID_1_"></g>
                    <path d="M117.328,41.662 C118.05,41.308 118.57,41.181 119.235,41.181 C121.045,41.181 122.372,42.565 122.372,44.457 C122.372,46.321 120.987,47.778 119.208,47.778 C118.57,47.778 118.05,47.649 117.328,47.298 L117.328,50.899 L116.649,50.899 L116.649,41.308 L117.328,41.308 L117.328,41.662 L117.328,41.662 Z M117.328,46.633 C117.978,46.987 118.446,47.112 119.08,47.112 C120.606,47.112 121.622,46.068 121.622,44.514 C121.622,42.961 120.519,41.846 118.997,41.846 C118.429,41.846 117.991,41.956 117.328,42.311 L117.328,46.633 Z" id="Shape" fill="#000000" fill-rule="nonzero" mask="url(#mask-64)"></path>
                </g>
                <g id="Clipped">
                    <mask id="mask-66" fill="white">
                        <use xlink:href="#path-65"></use>
                    </mask>
                    <g id="SVGID_1_"></g>
                    <path d="M125.083,41.308 L126.864,41.308 L126.864,41.859 L125.083,41.859 L125.083,45.629 C125.083,46.718 125.097,47.111 126.027,47.111 C126.41,47.111 126.621,47.055 127.187,46.802 L127.187,47.45 C127.061,47.521 126.848,47.592 126.609,47.662 C126.367,47.72 126.1,47.778 125.876,47.778 C125.167,47.778 124.404,47.381 124.404,46.421 L124.404,41.859 L122.695,41.859 L122.695,41.308 L124.404,41.308 L124.404,39.795 L124.871,39.203 L125.083,39.203 L125.083,41.308 L125.083,41.308 Z" id="Path" fill="#000000" fill-rule="nonzero" mask="url(#mask-66)"></path>
                </g>
                <g id="Clipped">
                    <mask id="mask-68" fill="white">
                        <use xlink:href="#path-67"></use>
                    </mask>
                    <g id="SVGID_1_"></g>
                    <path d="M128.896,39.173 L128.219,39.173 L128.219,38.016 L128.896,38.016 L128.896,39.173 Z M128.896,47.65 L128.219,47.65 L128.219,41.309 L128.896,41.309 L128.896,47.65 Z" id="Shape" fill="#000000" fill-rule="nonzero" mask="url(#mask-68)"></path>
                </g>
                <g id="Clipped">
                    <mask id="mask-70" fill="white">
                        <use xlink:href="#path-69"></use>
                    </mask>
                    <g id="SVGID_1_"></g>
                    <path d="M133.713,47.777 C131.863,47.777 130.48,46.362 130.48,44.485 C130.48,42.594 131.864,41.18 133.713,41.18 C135.564,41.18 136.935,42.594 136.935,44.485 C136.935,46.363 135.563,47.777 133.713,47.777 M133.713,41.844 C132.274,41.844 131.198,42.96 131.198,44.485 C131.198,45.998 132.273,47.112 133.713,47.112 C135.14,47.112 136.213,45.998 136.213,44.485 C136.213,42.974 135.14,41.844 133.713,41.844" id="Shape" fill="#000000" fill-rule="nonzero" mask="url(#mask-70)"></path>
                </g>
                <g id="Clipped">
                    <mask id="mask-72" fill="white">
                        <use xlink:href="#path-71"></use>
                    </mask>
                    <g id="SVGID_1_"></g>
                    <path d="M139.095,42.41 L139.122,42.41 C139.716,41.521 140.294,41.18 141.214,41.18 C142.568,41.18 143.573,42.071 143.573,43.779 L143.573,47.65 L142.894,47.65 L142.894,44.035 C142.894,42.607 142.289,41.844 141.171,41.844 C140.254,41.844 139.66,42.283 139.094,43.2 L139.094,47.649 L138.417,47.649 L138.417,41.309 L139.094,41.309 L139.094,42.41 L139.095,42.41 Z" id="Path" fill="#000000" fill-rule="nonzero" mask="url(#mask-72)"></path>
                </g>
                <g id="Clipped">
                    <mask id="mask-74" fill="white">
                        <use xlink:href="#path-73"></use>
                    </mask>
                    <g id="SVGID_1_"></g>
                    <path d="M150.408,47.111 L150.296,47.196 C149.66,47.677 149.393,47.778 149.124,47.778 C148.812,47.778 148.728,47.62 148.67,46.986 C147.964,47.535 147.358,47.778 146.68,47.778 C145.719,47.778 144.972,47.055 144.972,46.166 C144.972,44.511 146.821,43.934 148.67,43.849 L148.67,43.043 C148.67,42.195 148.207,41.746 147.258,41.746 C146.581,41.746 146.07,41.984 145.324,42.55 L145.324,41.858 C146.101,41.378 146.679,41.18 147.372,41.18 C148.163,41.18 149.349,41.503 149.349,42.833 L149.349,46.789 C149.349,47.041 149.393,47.111 149.505,47.111 C149.66,47.111 150.069,46.816 150.408,46.548 L150.408,47.111 Z M148.67,44.415 C147.02,44.345 145.649,45.064 145.649,46.167 C145.649,46.759 146.187,47.213 146.905,47.213 C147.515,47.213 148.009,46.986 148.671,46.393 L148.671,44.415 L148.67,44.415 Z" id="Shape" fill="#000000" fill-rule="nonzero" mask="url(#mask-74)"></path>
                </g>
                <g id="Clipped">
                    <mask id="mask-76" fill="white">
                        <use xlink:href="#path-75"></use>
                    </mask>
                    <g id="SVGID_1_"></g>
                    <rect id="Rectangle" fill="#000000" fill-rule="nonzero" mask="url(#mask-76)" x="151.481" y="38.016" width="1" height="9.634"></rect>
                </g>
                <g id="Clipped">
                    <mask id="mask-78" fill="white">
                        <use xlink:href="#path-77"></use>
                    </mask>
                    <g id="SVGID_1_"></g>
                    <path d="M158.645,41.662 C159.363,41.308 159.889,41.181 160.55,41.181 C162.359,41.181 163.689,42.565 163.689,44.457 C163.689,46.321 162.302,47.778 160.523,47.778 C159.889,47.778 159.363,47.649 158.645,47.298 L158.645,50.899 L157.968,50.899 L157.968,41.308 L158.645,41.308 L158.645,41.662 L158.645,41.662 Z M158.645,46.633 C159.291,46.987 159.759,47.112 160.395,47.112 C161.923,47.112 162.939,46.068 162.939,44.514 C162.939,42.961 161.838,41.846 160.31,41.846 C159.747,41.846 159.307,41.956 158.645,42.311 L158.645,46.633 L158.645,46.633 Z" id="Shape" fill="#000000" fill-rule="nonzero" mask="url(#mask-78)"></path>
                </g>
                <g id="Clipped">
                    <mask id="mask-80" fill="white">
                        <use xlink:href="#path-79"></use>
                    </mask>
                    <g id="SVGID_1_"></g>
                    <path d="M169.153,42.564 C168.545,42.013 168.233,41.843 167.881,41.843 C167.261,41.843 166.539,42.494 165.847,43.666 L165.847,47.649 L165.17,47.649 L165.17,41.309 L165.847,41.309 L165.847,42.975 L165.874,42.975 C166.624,41.787 167.386,41.181 168.094,41.181 C168.532,41.181 168.926,41.379 169.548,41.929 L169.153,42.564 Z" id="Path" fill="#000000" fill-rule="nonzero" mask="url(#mask-80)"></path>
                </g>
                <g id="Clipped">
                    <mask id="mask-82" fill="white">
                        <use xlink:href="#path-81"></use>
                    </mask>
                    <g id="SVGID_1_"></g>
                    <path d="M171.001,39.173 L170.322,39.173 L170.322,38.016 L171.001,38.016 L171.001,39.173 Z M171.001,47.65 L170.322,47.65 L170.322,41.309 L171.001,41.309 L171.001,47.65 Z" id="Shape" fill="#000000" fill-rule="nonzero" mask="url(#mask-82)"></path>
                </g>
                <g id="Clipped">
                    <mask id="mask-84" fill="white">
                        <use xlink:href="#path-83"></use>
                    </mask>
                    <g id="SVGID_1_"></g>
                    <path d="M177.344,42.24 C176.61,41.928 176.227,41.844 175.691,41.844 C174.281,41.844 173.306,42.919 173.306,44.5 C173.306,46.096 174.25,47.112 175.748,47.112 C176.327,47.112 176.752,47.027 177.456,46.747 L177.456,47.451 C176.738,47.692 176.284,47.779 175.69,47.779 C173.826,47.779 172.581,46.492 172.581,44.571 C172.581,42.579 173.853,41.181 175.663,41.181 C176.213,41.181 176.636,41.265 177.344,41.491 L177.344,42.24 L177.344,42.24 Z" id="Path" fill="#000000" fill-rule="nonzero" mask="url(#mask-84)"></path>
                </g>
                <g id="Clipped">
                    <mask id="mask-86" fill="white">
                        <use xlink:href="#path-85"></use>
                    </mask>
                    <g id="SVGID_1_"></g>
                    <path d="M179.166,44.245 C178.967,45.871 180.253,47.113 181.695,47.113 C182.542,47.113 183.234,46.828 184.052,46.166 L184.052,46.928 C183.304,47.508 182.525,47.778 181.61,47.778 C179.773,47.778 178.446,46.363 178.446,44.4 C178.446,42.536 179.675,41.181 181.356,41.181 C182.71,41.181 184.165,42.127 184.165,44.245 L179.166,44.245 Z M183.36,43.696 C183.121,42.451 182.443,41.845 181.356,41.845 C180.308,41.845 179.49,42.535 179.251,43.696 L183.36,43.696 Z" id="Shape" fill="#000000" fill-rule="nonzero" mask="url(#mask-86)"></path>
                </g>
                <g id="Clipped">
                    <mask id="mask-88" fill="white">
                        <use xlink:href="#path-87"></use>
                    </mask>
                    <g id="SVGID_1_"></g>
                    <path d="M189.01,42.452 C188.306,41.985 187.836,41.802 187.273,41.802 C186.509,41.802 185.918,42.269 185.918,42.876 C185.918,44.402 189.21,43.822 189.21,46.025 C189.21,47.012 188.307,47.777 187.133,47.777 C186.483,47.777 185.876,47.592 185.226,47.197 L185.226,46.532 C186.06,46.956 186.613,47.112 187.218,47.112 C187.993,47.112 188.56,46.661 188.56,46.011 C188.56,44.5 185.269,44.949 185.269,42.916 C185.269,41.942 186.17,41.179 187.317,41.179 C187.868,41.179 188.379,41.348 189.011,41.717 L189.011,42.452 L189.01,42.452 Z" id="Path" fill="#000000" fill-rule="nonzero" mask="url(#mask-88)"></path>
                </g>
                <g id="Clipped">
                    <mask id="mask-90" fill="white">
                        <use xlink:href="#path-89"></use>
                    </mask>
                    <g id="SVGID_1_"></g>
                    <rect id="Rectangle" fill="#000000" fill-rule="nonzero" mask="url(#mask-90)" x="190.438" y="46.28" width="1" height="1.37"></rect>
                </g>
            </g>
        </g>
    </g>
</svg>