<svg xmlns="http://www.w3.org/2000/svg" width="255" height="39" viewBox="0 0 255 39">
    <g fill="#000" fill-rule="evenodd">
        <path d="M12.429 18.995c-7.968 0-12.43-2.903-12.43-6.012V.306h5.173v11.97c0 1.336 2.347 2.608 7.257 2.608s7.258-1.272 7.258-2.609V.306h5.175v12.677c0 3.164-4.465 6.012-12.433 6.012M46.957 6.299c0-1.143-.94-1.906-2.586-1.906h-9.52V8.45h9.552c1.587 0 2.554-.884 2.554-2.15zm.057 12.086l-4.258-5.853H34.85v5.853h-5.17V.307h15.19c4.353 0 7.203 2.498 7.203 6.08 0 2.673-1.293 4.555-3.792 5.524l4.613 6.474h-5.88zM75.145 12.648c0-.854-.76-1.53-1.905-1.53H62.185v3.177h11.112c1.06 0 1.848-.705 1.848-1.647m-.91-6.734c0-.848-.763-1.52-1.85-1.52h-10.2V7.33h10.318c1.058 0 1.732-.59 1.732-1.417m6.145 7.09c0 3.112-2.766 5.38-7.232 5.38H57.014V.306h15.635c2.175 0 4.173.825 5.467 2.176.855.877 1.324 2.051 1.324 3.198 0 1.327-.469 2.325-1.532 3.268 1.677 1.086 2.472 2.378 2.472 4.055M169.48 12.648c0-.854-.76-1.53-1.905-1.53H156.52v3.177h11.113c1.059 0 1.848-.705 1.848-1.647m-.91-6.734c0-.848-.763-1.52-1.851-1.52h-10.2V7.33h10.319c1.058 0 1.732-.59 1.732-1.417m6.145 7.09c0 3.112-2.767 5.38-7.232 5.38h-16.135V.306h15.636c2.175 0 4.172.825 5.466 2.176a4.632 4.632 0 0 1 1.323 3.198c0 1.327-.467 2.325-1.53 3.268 1.676 1.086 2.472 2.378 2.472 4.055M94.578 4.593l-3.268 5.965h6.53l-3.262-5.965zm7.642 13.791l-2.091-3.735H89.024l-2.088 3.735h-5.319L91.637.306h5.881l10.02 18.078h-5.318zM126.881 18.384L115.504 6.447h-.086v11.937h-5.175V.306h5.997l11.432 11.929h.06V.305h5.176v18.079zM189.045 4.593l-3.268 5.965h6.534l-3.266-5.965zm7.64 13.791l-2.087-3.735h-11.112l-2.085 3.735h-5.322L186.1.306h5.878l10.026 18.078h-5.32zM221.987 6.299c0-1.143-.941-1.906-2.585-1.906h-9.52V8.45h9.547c1.59 0 2.558-.884 2.558-2.15zm.063 12.086l-4.263-5.853h-7.905v5.853h-5.176V.307h15.198c4.348 0 7.205 2.498 7.205 6.08 0 2.673-1.293 4.555-3.8 5.524l4.621 6.474h-5.88zM248.677 18.384L237.305 6.447h-.091v11.937h-5.17V.306h5.991l11.44 11.929h.054V.305h5.17v18.079zM54.361 33.102c1.204 0 1.805-.48 1.805-1.443 0-1.035-.649-1.552-1.949-1.552h-5.483v2.995h5.627zm3.487 5.001H56.04l-2.541-3.587h-4.764v3.587h-1.56v-9.412h7.422c.988 0 1.762.267 2.326.8.563.534.845 1.255.845 2.165 0 .797-.228 1.438-.688 1.923-.424.452-1.008.738-1.751.86l2.52 3.664zM62.96 38.103h1.56v-9.412h-1.56zM81.145 33.245c0 1.533-.548 2.773-1.644 3.716-1.097.943-2.55 1.417-4.364 1.417-1.653 0-3.036-.422-4.145-1.26-1.257-.957-1.886-2.199-1.886-3.736 0-1.507.638-2.747 1.912-3.719 1.12-.849 2.535-1.274 4.251-1.274 2.072 0 3.771.76 5.097 2.278l-1.457.728c-.978-1.052-2.234-1.576-3.77-1.576-1.194 0-2.195.294-3 .884-.937.685-1.405 1.58-1.405 2.679 0 1.06.404 1.92 1.209 2.577.805.66 1.871.989 3.197.989 2.08 0 3.431-.81 4.055-2.431h-4.38v-1.415h6.33v.143zM95.855 38.103h-1.56v-4.177h-7.544v4.177h-1.558v-9.412h1.558v3.82h7.544v-3.82h1.56zM109.747 30.107h-4.497v7.996h-1.559v-7.996h-4.498v-1.416h10.554zM125.52 34.579l-2.385-4.54-2.418 4.54h4.803zm3.567 3.524h-1.708l-1.085-2.11h-6.342l-1.085 2.11h-1.7l4.978-9.412h1.964l4.978 9.412zM140.776 30.107h-4.497v7.996h-1.561v-7.996h-4.5v-1.416h10.558zM160.848 38.103h-1.56v-4.177h-7.542v4.177h-1.56v-9.412h1.56v3.82h7.543v-3.82h1.56zM175.115 33.383c0-1.1-.468-1.995-1.403-2.68-.806-.59-1.806-.885-3.001-.885-1.308 0-2.374.336-3.196 1.007-.823.674-1.233 1.527-1.233 2.558 0 1.068.4 1.929 1.206 2.582.806.657 1.881.982 3.223.982 1.333 0 2.4-.33 3.202-.987.8-.657 1.202-1.518 1.202-2.577m1.627 0c0 1.545-.63 2.793-1.898 3.746-1.108.833-2.485 1.248-4.133 1.248-1.664 0-3.052-.42-4.162-1.26-1.261-.955-1.896-2.197-1.896-3.734 0-1.508.641-2.748 1.925-3.72 1.126-.848 2.504-1.274 4.133-1.274 1.639 0 3.014.426 4.122 1.274 1.273.972 1.91 2.212 1.91 3.72M192.964 38.103h-1.558v-7.695h-.04l-4.89 6.136-4.848-6.136h-.039v7.695h-1.56v-9.412h1.944l4.518 5.696 4.538-5.696h1.935zM207.527 38.103h-9.855v-9.412h9.492v1.416h-7.931v2.405h5.51v1.414h-5.51v2.761h8.294z"/>
    </g>
</svg>
