<?xml version="1.0" standalone="no"?>
<!DOCTYPE svg PUBLIC "-//W3C//DTD SVG 20010904//EN"
 "http://www.w3.org/TR/2001/REC-SVG-20010904/DTD/svg10.dtd">
<svg version="1.0" xmlns="http://www.w3.org/2000/svg"
 width="32.000000pt" height="32.000000pt" viewBox="0 0 32.000000 32.000000"
 preserveAspectRatio="xMidYMid meet">
<metadata>
Created by potrace 1.15, written by Peter Selinger 2001-2017
</metadata>
<g transform="translate(0.000000,32.000000) scale(0.100000,-0.100000)"
fill="#000000" stroke="none">
<path d="M30 285 c0 -41 27 -89 60 -109 l30 -17 -26 -47 c-14 -26 -35 -57 -47
-70 -29 -31 -12 -27 33 8 21 17 55 37 75 45 27 12 41 27 55 59 10 24 29 51 42
61 23 17 23 17 -20 13 -43 -4 -44 -3 -59 34 -17 43 -33 41 -33 -3 0 -16 -3
-29 -7 -29 -4 0 -28 18 -55 41 l-48 40 0 -26z"/>
</g>
</svg>
